<?xml version="1.0" standalone="no"?>
<!DOCTYPE svg PUBLIC "-//W3C//DTD SVG 20010904//EN"
 "http://www.w3.org/TR/2001/REC-SVG-20010904/DTD/svg10.dtd">
<svg version="1.0" xmlns="http://www.w3.org/2000/svg"
 width="512.000000pt" height="512.000000pt" viewBox="0 0 512.000000 512.000000"
 preserveAspectRatio="xMidYMid meet">

<g transform="translate(0.000000,512.000000) scale(0.100000,-0.100000)"
fill="#000000" stroke="none">
<path d="M2244 5093 c-4 -16 -21 -81 -38 -147 l-31 -119 -120 -38 c-66 -21
-174 -66 -241 -99 l-120 -62 -128 78 -128 77 -220 -221 -221 -220 77 -128 77
-127 -60 -121 c-33 -67 -78 -175 -100 -240 l-39 -120 -118 -31 c-66 -17 -131
-35 -147 -39 l-27 -6 0 -310 0 -310 28 -6 c15 -4 81 -21 146 -38 l120 -31 31
-100 c17 -55 46 -134 64 -175 33 -75 117 -226 130 -234 4 -3 37 14 73 37 l67
42 -25 40 c-79 127 -149 299 -186 458 -7 33 -20 62 -28 67 -8 4 -68 20 -132
36 l-118 28 0 186 0 186 118 28 c64 16 123 32 131 36 7 4 26 54 41 111 47 176
90 276 180 424 22 36 40 70 40 76 0 6 -29 60 -65 119 -36 59 -65 112 -65 117
0 12 243 253 255 253 6 0 59 -29 118 -65 60 -36 112 -65 117 -65 4 0 37 17 72
39 148 90 324 163 463 192 33 7 64 15 68 19 5 5 23 66 41 136 l32 129 184 0
184 0 32 -129 c18 -70 36 -131 41 -136 4 -4 35 -12 68 -19 139 -29 315 -102
463 -192 35 -22 68 -39 73 -39 4 0 59 31 121 69 l113 69 153 -152 152 -151 57
58 58 57 -196 196 -197 197 -128 -77 -128 -78 -120 62 c-67 33 -175 78 -241
99 l-120 38 -31 119 c-17 66 -34 131 -38 147 l-6 27 -310 0 -310 0 -6 -27z"/>
<path d="M2446 4369 c-588 -57 -1038 -555 -1038 -1149 0 -313 117 -594 337
-815 221 -220 501 -336 815 -336 314 0 594 116 815 336 220 221 337 502 337
815 0 604 -450 1093 -1057 1150 -60 5 -112 9 -115 9 -3 -1 -45 -6 -94 -10z
m379 -193 c348 -103 603 -364 696 -712 32 -119 37 -311 11 -435 -78 -378 -355
-668 -736 -771 -117 -32 -355 -32 -472 0 -451 122 -754 508 -754 962 0 427
278 812 678 940 134 43 179 49 342 46 121 -3 160 -8 235 -30z"/>
<path d="M290 4271 c-145 -46 -251 -167 -280 -321 -6 -34 -10 -518 -10 -1341
l0 -1289 80 0 80 0 2 1308 c3 1234 4 1309 21 1347 25 55 73 103 132 131 48 23
59 24 278 24 l227 0 0 80 0 80 -237 -1 c-199 0 -247 -3 -293 -18z"/>
<path d="M4210 4210 l0 -80 273 0 c265 0 273 -1 322 -24 59 -28 107 -76 132
-131 17 -38 18 -113 21 -1347 l2 -1308 80 0 80 0 0 1289 c0 823 -4 1307 -10
1341 -30 157 -139 280 -289 324 -45 13 -106 16 -333 16 l-278 0 0 -80z"/>
<path d="M3863 4077 l-61 -43 24 -39 c79 -127 129 -247 174 -414 15 -57 34
-107 41 -111 8 -4 67 -20 132 -36 l117 -28 0 -186 0 -186 -117 -28 c-65 -16
-125 -32 -133 -36 -8 -5 -21 -34 -28 -67 -39 -167 -102 -321 -192 -468 -22
-36 -40 -69 -40 -75 0 -5 29 -57 65 -117 36 -59 65 -113 65 -118 0 -12 -242
-255 -254 -255 -4 0 -57 29 -116 65 -59 36 -113 65 -119 65 -6 0 -40 -18 -76
-40 -144 -88 -290 -149 -448 -186 -46 -10 -82 -24 -86 -33 -5 -9 -21 -69 -37
-133 l-28 -118 -186 0 -186 0 -28 118 c-16 64 -32 124 -37 133 -4 9 -40 23
-86 33 -158 37 -304 98 -448 186 -36 22 -70 40 -76 40 -6 0 -60 -29 -119 -65
-59 -36 -112 -65 -116 -65 -5 0 -77 68 -160 151 l-151 150 -53 -61 -53 -62
195 -195 196 -196 128 78 128 77 122 -61 c68 -34 176 -79 241 -100 l118 -38
31 -119 c17 -65 34 -131 38 -146 l6 -28 310 0 310 0 6 28 c4 15 21 81 38 146
l31 119 118 38 c65 21 173 66 241 100 l122 61 128 -77 128 -78 220 221 221
220 -77 128 -77 127 60 122 c34 68 79 176 100 241 l39 119 118 31 c66 17 131
34 147 38 l27 6 0 310 0 310 -27 6 c-16 4 -81 22 -147 39 l-118 31 -38 115
c-21 63 -50 141 -64 174 -39 87 -119 225 -131 224 -5 0 -38 -19 -72 -42z"/>
<path d="M0 1021 c0 -70 5 -152 10 -182 22 -114 91 -218 184 -276 93 -59 75
-58 666 -63 l545 -5 0 -165 0 -165 -167 -3 -168 -2 0 -80 0 -80 1490 0 1490 0
0 80 0 80 -167 2 -168 3 0 165 0 165 545 5 c591 5 573 4 666 63 93 58 162 162
184 276 5 30 10 112 10 182 l0 129 -2560 0 -2560 0 0 -129z m4956 -101 c-3
-38 -13 -88 -22 -110 -20 -50 -99 -122 -152 -138 -57 -17 -4387 -17 -4444 0
-53 16 -132 88 -152 138 -9 22 -19 72 -22 110 l-7 70 2403 0 2403 0 -7 -70z
m-1406 -590 l0 -170 -990 0 -990 0 0 170 0 170 990 0 990 0 0 -170z"/>
</g>
</svg>
